<?xml version="1.0" encoding="UTF-8"?>
<svg width="204px" height="100px" viewBox="0 0 204 100" version="1.1" xmlns="http://www.w3.org/2000/svg" xmlns:xlink="http://www.w3.org/1999/xlink">
    <title>无收藏</title>
    <g id="缺省页" stroke="none" stroke-width="1" fill="none" fill-rule="evenodd">
        <g id="空页面新" transform="translate(-3078.000000, -138.000000)" stroke="#CCCFD4">
            <g id="无收藏" transform="translate(3077.500000, 135.000000)">
                <path d="M120,88.5507816 L129.611244,88.5507816 C129.611244,84.1325036 134.170477,81.3055556 138.146428,81.3055556 C138.596652,81.3055556 139.037224,81.3514826 139.464556,81.4393507 C140.833228,79.2119381 143.135716,77.75 145.745473,77.75 C149.534315,77.75 152.675518,80.8313553 153.250454,84.8619888 L153.344518,84.8611111 C156.742169,84.8611111 159.645053,87.2151305 160.804478,90.5355602 C161.152571,91.5324477 161.343513,92.6164447 161.343513,93.75 L169.992775,93.75" id="路径备份-3" stroke-linejoin="round"></path>
                <g id="编组-10" transform="translate(143.000000, 28.000000) rotate(-330.000000) translate(-143.000000, -28.000000) translate(118.500000, 10.000000)">
                    <path d="M49,26 C49,11.6405965 38.0309764,0 24.5,0 C10.9690236,0 0,11.6405965 0,26" id="路径" fill="#E3E6E9" stroke-linecap="round"></path>
                    <path d="M39,26 C39,11.6405965 32.5081289,0 24.5,0 C16.4918711,0 10,11.6405965 10,26" id="路径备份-8" fill="#E3E6E9" stroke-linecap="round"></path>
                    <ellipse id="椭圆形备份-19" fill="#FFFFFF" cx="24.5" cy="26" rx="24" ry="9.5"></ellipse>
                </g>
                <path d="M139,24.6931224 C133.888234,29.4411073 126.888234,41.0433999 118,59.5" id="路径-42" stroke-linecap="round"></path>
                <path d="M48,87.3055556 L56.7569287,87.3055556 C56.7569287,82.8872776 60.1202102,79.3055556 64.2690283,79.3055556 C64.7388278,79.3055556 65.1985548,79.3514826 65.6444662,79.4393507 C67.0726466,77.2119381 69.475242,75.75 72.1984668,75.75 C76.152041,75.75 79.4298181,78.8313553 80.0297512,82.8619888 L80.1279053,82.8611111 C83.6732806,82.8611111 86.7023768,85.2151305 87.9122118,88.5355602 C88.0922379,89.0296475 88.2319818,89.5451331 88.3271503,90.0774451" id="路径" stroke-linejoin="round"></path>
                <path d="M126.442632,73.3188256 C132.639589,69.2835806 147.001116,57.3955415 159.711532,47.7858242" id="路径-43" stroke-linecap="round"></path>
                <path d="M108.921626,75.75 C108.921626,65.8300052 113.5,40.472756 118,22.5873678" id="路径-44" stroke-linecap="round"></path>
                <path d="M117.5,68.5346055 C131.525317,60.5523249 137.135902,50.4192248 140.47386,46.2567073" id="路径-45" stroke-linecap="round"></path>
                <g id="编组-26" transform="translate(88.500000, 54.450002)" fill="#E3E6E9">
                    <path d="M14.5891273,0.5 C16.6434052,0.5 19.0111754,1.6755831 21.2938221,2.95132539 L21.2938221,2.95132539 L25.00498,5.080344 L28.3800349,3.1538339 C30.7692998,1.77814698 33.2679811,0.512834984 35.4218979,0.512834951 C38.1739976,0.513831498 40.7998512,1.30444173 43.0246123,2.71128111 C45.247739,4.11708695 47.0703784,6.13829269 48.2174625,8.60175106 C49.3389585,11.0102568 49.714141,13.6257412 49.38535,16.1503358 C49.0565781,18.6747832 48.0239667,21.1082405 46.3304448,23.1531564 L46.3304448,23.1531564 L29.123,41.35 L29.048177,41.1005522 C28.4766039,39.3395691 27.2906143,37.9932319 25.8724456,37.0111277 L25.6339998,36.8508075 C24.0275301,35.8021727 22.165152,35.2038439 20.1801024,35.2038439 C18.6877435,35.2038439 17.2648262,35.5421067 15.9680147,36.1557621 L15.9680147,36.1557621 L3.90460324,23.4167621 C2.11256843,21.3636603 1.00863333,18.8904514 0.638917525,16.3147719 C0.268841358,13.7365818 0.634456881,11.0558542 1.7813382,8.59150009 C2.92894412,6.12558898 4.75334898,4.10269645 6.97872974,2.69633692 C9.20574763,1.2889428 11.8343479,0.498912828 14.5891273,0.5 Z" id="形状结合"></path>
                </g>
                <path d="M64.9687372,96.8288929 C66.6859978,94.0924047 69.502183,92.3076923 72.6850136,92.3076923 C74.8229162,92.3076923 76.7953962,93.1129168 78.3806164,94.4711578 C79.782464,93.1214705 81.5967741,92.3076923 83.5782642,92.3076923 C84.3290617,92.3076923 85.0558572,92.4245259 85.7453524,92.6430741 C87.829435,89.8050797 90.96506,88 94.4715147,88 C97.7856143,88 100.768454,89.6124677 102.846175,92.18498 C104.510047,90.9024072 106.518184,90.1538462 108.680102,90.1538462 C112.519639,90.1538462 115.874128,92.5149011 117.681578,96.0296247" id="路径"></path>
                <path d="M88.5,73.75 C88.5,77.0637085 99.6928813,79.75 113.5,79.75 C127.307119,79.75 138.5,77.0637085 138.5,73.75" id="路径" stroke-width="2" stroke-linecap="round"></path>
                <path d="M89.5000374,55.2918162 C91.8193411,61.1525102 93,64.7511028 93,66.0902515 C93,67.0362912 92.6089674,67.8923512 91.9780291,68.5121757 C91.3438462,69.1351876 90.4675288,69.5197924 89.5,69.5197924 C88.5324712,69.5197924 87.6561538,69.1351876 87.0219709,68.5121757 C86.3910326,67.8923512 86,67.0362912 86,66.0902515 C86,64.7511028 87.1806589,61.1525102 89.5000374,55.2918162 Z" id="椭圆形" fill="#FFFFFF"></path>
            </g>
        </g>
    </g>
</svg>