<?xml version="1.0" encoding="UTF-8"?>
<svg width="205px" height="100px" viewBox="0 0 205 100" version="1.1" xmlns="http://www.w3.org/2000/svg" xmlns:xlink="http://www.w3.org/1999/xlink">
    <title>无搜索结果</title>
    <g id="缺省页" stroke="none" stroke-width="1" fill="none" fill-rule="evenodd">
        <g id="空页面新" transform="translate(-305.000000, -138.000000)">
            <g id="无搜索结果" transform="translate(306.000000, 138.000000)">
                <g id="编组-13" transform="translate(93.880652, 82.319813) rotate(-300.000000) translate(-93.880652, -82.319813) translate(75.380652, 42.819813)" stroke="#CCCFD4" stroke-linejoin="round">
                    <path d="M12.2316445,50.2217659 L12.2316445,50.2217659 L12.2316445,77.9019361 C12.2316445,78.4542209 11.7839292,78.9019361 11.2316445,78.9019361 L7.76822982,78.9019361 C7.21594507,78.9019361 6.76822982,78.4542209 6.76822982,77.9019361 L6.76822982,50.2969536 L6.76822982,50.2969536" id="路径"></path>
                    <path d="M5.40237616,61.1458386 L13.5974981,61.1458386 L13.5974981,77.9019361 C13.5974981,78.4542209 13.1497829,78.9019361 12.5974981,78.9019361 L6.40237616,78.9019361 C5.85009141,78.9019361 5.40237616,78.4542209 5.40237616,77.9019361 L5.40237616,61.1458386 L5.40237616,61.1458386 Z" id="矩形" fill="#E3E6E9"></path>
                    <path d="M0.479217456,48.6944902 C3.3032402,49.6820958 6.33888723,50.2190093 9.49993714,50.2190093 C24.5867401,50.2190093 36.8170103,37.988739 36.8170103,22.9019361 C36.8170103,13.8574541 32.4215029,5.83959791 25.6501201,0.867999399" id="路径"></path>
                    <path d="M3.82529947,41.1678203 C5.61820262,41.7242073 7.52407287,42.0238873 9.49993714,42.0238873 C20.0606992,42.0238873 28.6218884,33.4626982 28.6218884,22.9019361 C28.6218884,16.2654557 25.2410904,10.418603 20.1078099,6.9896932" id="路径"></path>
                </g>
                <g id="编组-16" transform="translate(68.815921, 1.000000)">
                    <path d="M62.0187276,38.0799702 C61.0672723,35.2726098 59.6400894,31.0615692 57.7371788,25.4468483 C56.0863651,20.5759636 51.5151764,17.2986214 46.3721515,17.2986214 C45.6144091,17.2986214 45.0461023,17.2986214 44.667231,17.2986214 M29.4344911,17.2986214 C28.2800268,17.2986214 26.5483303,17.2986214 24.2394017,17.2986214 C18.4743288,17.2986214 13.5239666,21.3982724 12.4496133,27.0623549 L8.56814597,47.5257827" id="形状" stroke="#CCCFD4" stroke-linejoin="round"></path>
                    <path d="M32.8333298,21.5259725 L36.034201,22.1489978 C39.4389146,22.8116995 42.8581366,21.0741408 44.3299883,17.9332969 L44.6725057,17.202385 C46.0487685,14.2655221 46.1192568,10.8836971 44.866564,7.89203822 C43.6509268,4.98887503 40.9667759,2.96474113 37.8412613,2.59421633 L36.1821637,2.39753293 C32.8862054,2.00680229 29.8975534,4.36195469 29.5068228,7.65791303 C29.4789877,7.89271243 29.4650338,8.12894991 29.4650338,8.36539344 L29.4650338,15.2487491 L29.4650338,15.2487491 L29.4650338,18.4198335 L29.3992764,20.0040623 L32.8333298,21.5259725 Z" id="路径-111" stroke="#CCCFD4" stroke-linejoin="round"></path>
                    <path d="M60.9944969,52.0561972 L68.8537407,59.0503167 C70.7095459,60.7018399 70.9395131,63.5203777 69.3759694,65.4508888 C67.6582586,67.5717504 64.9056756,68.5644846 62.2296658,68.0282426 L58.8157052,67.3441236 L42.7391576,64.1109203" id="路径" stroke="#CCCFD4"></path>
                    <path d="M39.4469147,10.0200486 C36.6182192,10.0200486 34.6958198,9.46412349 33.6797167,8.35227317 L31.7121177,13.5468617 L31.4059244,13.5468617 C30.7972898,13.5468617 30.303894,14.0402575 30.303894,14.6488921 C30.303894,14.977424 30.4504715,15.2888249 30.7036575,15.4981813 L30.7036575,15.4981813 L30.7036575,15.4981813 L29.4650338,18.4198335 L27.5707247,16.4948268 C25.7511482,14.6457637 24.9411415,12.0291918 25.3977635,9.47549065 L25.7705538,7.390626 C26.3864227,3.94632139 29.1691471,1.30186103 32.6403432,0.86217265 L36.3013349,0.398443318 C38.3370682,0.140581691 40.399797,0.586120984 42.1476191,1.66121198 L45.3669316,3.64142142 L45.3669316,3.64142142 C44.2489492,7.89383957 42.2756103,10.0200486 39.4469147,10.0200486 Z" id="路径-113" fill="#CCCFD4"></path>
                    <path d="M5.94821208,51.1810272 C1.74966215,53.8527766 -0.469957888,58.7681613 0.315762029,63.6953896 C1.02819262,68.1630226 5.22746384,71.2072156 9.69509682,70.494785 C9.74847619,70.4862729 9.80177001,70.4772326 9.85497042,70.4676655 L24.66977,67.8035023 L51.5791091,62.3619138 C52.7483867,62.1254632 53.9586934,62.1917622 55.0951473,62.5545177 L57.7946712,63.4162042 L57.7946712,63.4162042 C58.5667463,63.6626502 59.3924207,63.2365436 59.6388667,62.4644685 C59.7512883,62.1122697 59.7266278,61.7306149 59.5698159,61.3958125 L59.1090571,60.4120665 C58.4879715,59.0860137 57.4034013,58.0328583 56.0596709,57.4510063 L47.0869002,53.4968712" id="路径" stroke="#CCCFD4"></path>
                    <line x1="34.939045" y1="54.7600168" x2="36.8197892" y2="65.324145" id="路径-117" stroke="#CCCFD4"></line>
                    <path d="M8.56814597,44.2418259 C15.2881798,37.7995005 23.5501944,36.639391 31.4305402,41.1122555 C33.3675353,42.2116891 35.6829239,44.289434 37.619919,45.3888676 C38.3661311,45.7734772 38.3830011,45.7734772 38.8761728,45.094871 C45.9591674,35.3486418 58.0541129,33.5773285 66.7554743,41.1122555 L67.6512926,44.946488" id="路径" stroke="#CCCFD4"></path>
                    <path d="M37.8661954,48.3677005 C27.7090307,42.5756812 15.521919,41.5322653 4.52801208,45.5134075 L4.35013719,45.57782 L4.35013719,45.57782 L5.91627067,51.5503099 L17.4407476,51.5503099 C21.6980227,51.5503099 25.9337581,52.1544411 30.021279,53.3446363 L37.2321496,55.4442815 L37.2321496,55.4442815 L41.275556,55.4442815 L42.8707012,54.8421418 C48.6233012,52.6706348 54.7598961,51.7010927 60.9017552,51.9933525 L68.5227349,52.355996 L68.5227349,52.355996 L70.5034668,46.0046943 C61.1883749,43.0512219 51.1488813,43.3298065 42.0119086,46.7953029 L37.8661954,48.3677005 L37.8661954,48.3677005 Z" id="路径-114" stroke="#CCCFD4" fill="#E3E6E9" stroke-linejoin="round"></path>
                    <polyline id="路径" stroke="#CCCFD4" points="40.7113556 47.5257827 40.7113556 55.4442815 37.517763 55.4442815 37.517763 48.2982721"></polyline>
                </g>
            </g>
        </g>
    </g>
</svg>